<svg width="120" height="40" viewBox="0 0 120 40" fill="none" xmlns="http://www.w3.org/2000/svg">
  <defs>
    <linearGradient id="logoGrad" x1="0%" y1="0%" x2="100%" y2="100%">
      <stop offset="0%" style="stop-color:#1f2937;stop-opacity:1" />
      <stop offset="100%" style="stop-color:#374151;stop-opacity:1" />
    </linearGradient>
  </defs>
  
  <!-- Map icon -->
  <g transform="translate(5, 8)">
    <path d="M8 2C8 1.44772 8.44772 1 9 1H15C15.5523 1 16 1.44772 16 2V14C16 14.5523 15.5523 15 15 15H9C8.44772 15 8 14.5523 8 14V2Z" fill="url(#logoGrad)"/>
    <path d="M10 4H14V6H10V4Z" fill="white" opacity="0.8"/>
    <path d="M10 8H14V10H10V8Z" fill="white" opacity="0.8"/>
    <path d="M10 12H12V13H10V12Z" fill="white" opacity="0.8"/>
    <circle cx="13" cy="12" r="1" fill="#3b82f6"/>
  </g>
  
  <!-- Text -->
  <text x="35" y="25" font-family="system-ui, -apple-system, sans-serif" font-size="18" font-weight="600" fill="#1f2937">PlaceList</text>
</svg> 